<svg width="121" height="97" viewBox="0 0 121 97" fill="none" xmlns="http://www.w3.org/2000/svg">
<g id="Frame" clip-path="url(#clip0_381_12005)">
<g id="Clip path group">
<mask id="mask0_381_12005" style="mask-type:luminance" maskUnits="userSpaceOnUse" x="0" y="0" width="121" height="97">
<g id="clip0_413_17">
<path id="Vector" d="M121 0H0V97H121V0Z" fill="white"/>
</g>
</mask>
<g mask="url(#mask0_381_12005)">
<g id="Group">
<path id="Vector_2" fill-rule="evenodd" clip-rule="evenodd" d="M60.5364 14.0958C86.1006 14.0958 106.834 34.0979 106.834 58.7639C106.834 69.0346 103.238 78.4945 97.1949 86.0401H23.8779C17.835 78.4945 14.2393 69.0346 14.2393 58.7639C14.2393 34.0979 34.9721 14.0958 60.5364 14.0958Z" fill="#E21F26"/>
<path id="Vector_3" fill-rule="evenodd" clip-rule="evenodd" d="M43.8919 33.6559C46.3565 33.6559 48.3569 36.1444 48.3569 39.2142C48.3569 42.2839 46.3565 44.7724 43.8919 44.7724C41.4273 44.7724 39.427 42.2839 39.427 39.2142C39.427 36.1444 41.4273 33.6559 43.8919 33.6559ZM30.7834 57.1558C31.5689 57.8728 32.7523 57.744 33.4121 56.8774L39.3432 49.1091V46.2725C39.2978 46.2238 39.2524 46.175 39.2001 46.1298C38.4146 45.4163 37.2312 45.5416 36.5714 46.4082L30.56 54.281C29.9002 55.1476 29.9979 56.4424 30.7834 57.1558ZM56.6863 56.8844C55.9008 57.5979 54.7174 57.4726 54.0576 56.6059L48.0497 48.7332C47.8751 48.5069 47.7564 48.2529 47.6866 47.9849V46.8363C47.7843 46.4639 47.9798 46.1194 48.2731 45.8548C49.0585 45.1414 50.2385 45.2667 50.9018 46.1333L56.9132 54.006C57.573 54.8727 57.4752 56.1674 56.6898 56.8844H56.6863ZM38.3518 51.8551L40.1915 49.5058V46.5231H46.8383V48.9107L48.9294 51.8516V61.9067C48.9294 62.8638 48.2137 63.6434 47.341 63.6434H39.9367C39.0639 63.6434 38.3483 62.8638 38.3483 61.9067V51.8516L38.3518 51.8551ZM40.3451 65.3314C41.2877 65.3314 42.0557 66.1737 42.0557 67.2074V79.6395C42.0557 80.6732 41.2842 81.5155 40.3451 81.5155C39.406 81.5155 38.6345 80.6732 38.6345 79.6395V67.2074C38.6345 66.1772 39.406 65.3314 40.3451 65.3314ZM47.0198 65.3314C47.9624 65.3314 48.7304 66.1737 48.7304 67.2074V79.6395C48.7304 80.6732 47.9589 81.5155 47.0198 81.5155C46.0808 81.5155 45.3092 80.6732 45.3092 79.6395V67.2074C45.3092 66.1772 46.0808 65.3314 47.0198 65.3314ZM80.0163 36.9414C82.3029 36.9414 84.1566 39.249 84.1566 42.0994C84.1566 44.9499 82.3029 47.2575 80.0163 47.2575C77.7298 47.2575 75.8726 44.9464 75.8726 42.0994C75.8726 39.2524 77.7263 36.9414 80.0163 36.9414ZM70.2661 59.0631C70.9748 59.6235 71.9801 59.439 72.5003 58.6559L77.7996 50.6613C78.3197 49.8748 78.1626 48.7749 77.454 48.2181C76.7418 47.6577 75.7364 47.8422 75.2163 48.6253L69.917 56.6233C69.3968 57.4099 69.5539 58.5063 70.2626 59.0666L70.2661 59.0631ZM90.381 58.8473C89.6793 59.4216 88.639 59.2789 88.0735 58.5341L82.3029 50.9259C81.7374 50.181 81.8491 49.1021 82.5543 48.5278C83.2559 47.9535 84.2928 48.0963 84.8583 48.8411L90.6288 56.4493C91.1944 57.1941 91.0827 58.2731 90.3775 58.8473H90.381ZM81.3604 50.3759L81.6745 51.3714L87.5009 69.8107C87.8081 70.7748 86.7399 71.6658 85.8078 71.6658H74.3435C73.4114 71.6658 72.3467 70.7748 72.6504 69.8107L78.3442 51.796L78.7945 50.3794C79.6638 47.6299 80.4213 47.3967 81.3638 50.3794L81.3604 50.3759ZM76.7523 72.9919C77.6634 72.9919 78.407 73.8063 78.407 74.8052V80.1059C78.407 81.1013 77.6634 81.9192 76.7523 81.9192C75.8411 81.9192 75.0976 81.1048 75.0976 80.1059V74.8052C75.0976 73.8098 75.8446 72.9919 76.7523 72.9919ZM83.249 72.9919C84.1601 72.9919 84.9037 73.8063 84.9037 74.8052V80.1059C84.9037 81.1013 84.1601 81.9192 83.249 81.9192C82.3378 81.9192 81.5942 81.1048 81.5942 80.1059V74.8052C81.5942 73.8098 82.3378 72.9919 83.249 72.9919ZM63.4308 63.6434L63.6123 64.2177L67.7282 74.8365C67.9411 75.3899 67.3651 75.905 66.8694 75.905H58.6866C58.0931 75.905 57.3216 75.3725 57.5381 74.8365L61.6958 64.4613L61.9541 63.6434C62.4533 62.0598 62.8897 61.9275 63.4308 63.6434ZM62.97 56.3414C64.1848 56.3414 65.1693 57.6013 65.1693 59.1536C65.1693 60.7059 64.1848 61.9693 62.97 61.9693C61.7551 61.9693 60.7707 60.7094 60.7707 59.1536C60.7707 57.5979 61.7551 56.3414 62.97 56.3414ZM61.1547 76.5593C61.6853 76.5593 62.1147 77.0327 62.1147 77.6104V80.6871C62.1147 81.2649 61.6818 81.7382 61.1547 81.7382C60.6276 81.7382 60.1947 81.2649 60.1947 80.6871V77.6104C60.1947 77.0327 60.6276 76.5593 61.1547 76.5593ZM64.5305 76.5593C65.0611 76.5593 65.4905 77.0327 65.4905 77.6104V80.6871C65.4905 81.2649 65.0576 81.7382 64.5305 81.7382C64.0033 81.7382 63.5704 81.2649 63.5704 80.6871V77.6104C63.5704 77.0327 63.9998 76.5593 64.5305 76.5593ZM70.8526 59.801C70.5942 62.6271 68.2518 64.9625 65.1134 65.7108L64.1115 63.2362C66.3911 62.8742 68.1715 61.4786 68.5765 59.7175L70.8526 59.7975V59.801ZM60.3308 65.5959C57.2309 64.6875 55.0036 62.2025 55.0036 59.2824C55.0036 58.9344 55.0351 58.5898 55.0944 58.2557L57.2623 58.3984C57.2309 58.5828 57.2169 58.7708 57.2169 58.9622C57.2169 60.8938 58.8681 62.5366 61.1512 63.1074L60.3308 65.5924V65.5959Z" fill="white"/>
<path id="Vector_4" fill-rule="evenodd" clip-rule="evenodd" d="M61.2627 30.5131C61.7515 30.5548 62.2193 30.6697 62.6521 30.8437L63.6995 29.0861L62.9874 30.9934C63.326 31.1604 63.6402 31.3658 63.923 31.6059L66.8554 29.2357L64.3976 32.0653C64.6944 32.396 64.9458 32.7719 65.1343 33.1756L67.1416 32.5839L65.2705 33.5028C65.4066 33.8612 65.4939 34.2406 65.5288 34.6304L70.3952 35.0446L65.5288 35.4588C65.4939 35.859 65.3995 36.2419 65.2634 36.6004L67.131 37.5296L65.1238 36.931C64.9353 37.3312 64.6874 37.7002 64.3941 38.0273L66.8518 40.8569L63.9194 38.4833C63.5423 38.7965 63.1165 39.0541 62.6488 39.242L63.2072 41.1945L62.3031 39.3638C61.9715 39.4717 61.6223 39.5413 61.2558 39.5727L60.8265 44.2678L60.397 39.5727C59.9082 39.5309 59.4405 39.416 59.0076 39.2385L57.9604 40.9962L58.6759 39.0889C58.3373 38.9218 58.0231 38.7165 57.7369 38.4798L54.8046 40.8535L57.2621 38.0239C56.9654 37.6932 56.7141 37.3173 56.5256 36.9136L54.5182 37.5053L56.3859 36.5864C56.2532 36.2279 56.1659 35.8521 56.1275 35.4588L51.2646 35.0446L56.1275 34.6304C56.1659 34.2302 56.2567 33.8473 56.3929 33.4854L54.5252 32.5596L56.529 33.1582C56.7175 32.7579 56.9654 32.389 57.2621 32.0619L54.8046 29.2322L57.7369 31.6024C58.1139 31.2892 58.5398 31.0282 59.0076 30.8402L58.4491 28.8877L59.3532 30.7184C59.6883 30.6105 60.0375 30.5409 60.4006 30.5096L60.8299 25.8145L61.2593 30.5096L61.2627 30.5131Z" fill="#FDEB07"/>
<g id="Mask group">
<mask id="mask1_381_12005" style="mask-type:luminance" maskUnits="userSpaceOnUse" x="24" y="86" width="75" height="11">
<g id="Group_2">
<path id="Vector_5" d="M98.6614 86.6074H24.0527V97H98.6614V86.6074Z" fill="white"/>
</g>
</mask>
<g mask="url(#mask1_381_12005)">
<g id="Group_3">
<path id="Vector_6" fill-rule="evenodd" clip-rule="evenodd" d="M26.5875 91.6749V90.0009H24.7966L24.2695 89.1412H28.4272L28.9194 90.0009H27.6417V91.6471C27.6417 91.9603 27.5754 92.2283 27.4393 92.4441C27.3345 92.6077 27.139 92.7782 26.8563 92.9488L28.4028 94.5463L27.9943 94.9152L26.968 93.8537C26.5211 93.3838 26.1685 92.9836 25.9137 92.6529C25.5856 92.2353 25.4215 91.9429 25.4215 91.7794C25.4215 91.5392 25.5472 91.4209 25.802 91.4209C25.9207 91.4209 26.0848 91.4626 26.2942 91.5427L26.584 91.6784L26.5875 91.6749ZM30.4415 90.0009V94.8456L29.3872 94.1078V90.0009H28.6471L28.0886 89.1412H31.2688L31.7611 90.0009H30.438H30.4415ZM34.4875 93.0184C34.4212 93.1159 34.2815 93.2203 34.0721 93.3282C33.8556 93.4256 33.6357 93.4743 33.4123 93.4743C33.0771 93.4743 32.7071 93.2968 32.3056 92.9383C31.8658 92.5451 31.6459 92.1483 31.6459 91.748V90.0009H31.0175L30.4589 89.1412H34.7144L35.2066 90.0113L32.6513 90.0009L34.4875 91.5322L34.7354 91.8107V92.7782L34.4875 93.0219V93.0184ZM34.3583 92.0474L32.6931 90.6621V91.9569C32.6931 92.1518 32.7176 92.3223 32.7665 92.4755C32.8153 92.6286 32.9026 92.7052 33.0318 92.7052C33.1958 92.7052 33.3774 92.6564 33.5764 92.5555C33.7753 92.4546 34.0337 92.2875 34.3583 92.0474ZM36.8055 90.0009H33.9254L33.3669 89.1412H38.5859L39.0781 90.0009H37.8563V91.2434C37.8563 91.3861 37.8423 91.4835 37.8109 91.5392C37.783 91.5949 37.7306 91.6332 37.6538 91.6575C36.7741 91.7898 36.1562 91.9743 35.8036 92.2075C35.5069 92.3919 35.3567 92.639 35.3567 92.9453C35.3567 93.095 35.444 93.2307 35.6151 93.3595C35.7861 93.4848 35.9607 93.5509 36.1422 93.5509C36.5297 93.5509 37.0115 93.4221 37.5875 93.1611C37.8179 93.0636 38.0762 92.9349 38.359 92.7713L38.8302 93.5962C38.8093 93.7215 38.5824 93.885 38.153 94.0834C37.7236 94.2818 37.3256 94.3793 36.9591 94.3793C36.3307 94.3793 35.7652 94.1669 35.2625 93.7423C34.7563 93.3177 34.5049 92.8513 34.5049 92.3432C34.5049 92.1344 34.5573 91.9429 34.662 91.762C34.8052 91.5148 35.0251 91.3339 35.3218 91.2155C35.4929 91.1494 35.7547 91.0693 36.1003 90.9789C36.4494 90.8884 36.6798 90.8083 36.802 90.7317V90.0043L36.8055 90.0009ZM35.8315 96.0081L37.3326 94.8909C37.4199 94.8248 37.4967 94.7899 37.556 94.7899C37.57 94.7969 37.5875 94.8039 37.6049 94.8108C37.6224 94.8178 37.6468 94.8317 37.6782 94.8561L37.8248 95.0579L38.9804 96.6903L38.5719 96.9826L37.7027 95.7575L36.411 96.7181L35.8315 96.0081ZM42.1501 90.0009H40.7607V94.9013L39.7065 94.1948V89.9974H38.9769L38.4183 89.1377H39.9857C39.9857 88.6504 39.8636 88.2537 39.6227 87.9439C39.3783 87.6307 39.0956 87.4741 38.7674 87.4741C38.5265 87.4741 38.3345 87.5437 38.1844 87.6794C38.0343 87.8151 37.961 87.9926 37.961 88.2154L37.9819 88.5704L37.378 88.6365C37.2663 88.5251 37.1755 88.3859 37.1057 88.2189C37.0359 88.0518 36.9975 87.9056 36.9975 87.7768C36.9975 87.4636 37.1371 87.1921 37.4129 86.9624C37.6887 86.7327 38.0203 86.6144 38.4113 86.6144C38.942 86.6144 39.3888 86.8232 39.7553 87.2409C40.1219 87.6585 40.3558 88.2919 40.4605 89.1377H41.5916L42.1501 89.9974V90.0009ZM40.7607 89.1412H46.9572L47.4494 90.0009H46.5313V94.9118L45.477 94.1739V93.1611L45.0057 93.3838C44.6322 93.5405 44.332 93.6205 44.1086 93.6205C43.7071 93.6205 43.3371 93.4778 43.0019 93.1924C42.8064 93.0288 42.576 92.7643 42.3072 92.3989L42.0838 91.9395C41.9861 91.6993 41.9197 91.5009 41.8813 91.3443C41.8813 91.2991 42.1292 91.1981 42.6249 91.038C43.1206 90.8744 43.3685 90.7143 43.3685 90.5508C43.3685 90.4394 43.3126 90.2932 43.2009 90.1122L43.1241 90.0009H41.3088L40.7607 89.1412ZM44.311 91.3791C44.311 91.4835 44.0806 91.6158 43.6163 91.7759C43.152 91.936 42.9216 92.103 42.9216 92.2736C42.9216 92.4232 43.0264 92.5451 43.2358 92.6321C43.3929 92.6843 43.5395 92.7121 43.6722 92.7121C43.955 92.7121 44.346 92.5903 44.8382 92.3397L45.477 91.9708V89.9974H43.763L44.0318 90.4672C44.2203 90.857 44.311 91.1598 44.311 91.3756V91.3791ZM54.1381 92.7121C54.1171 92.7191 54.0508 92.7434 53.9426 92.7782C53.8344 92.8165 53.6947 92.8548 53.5237 92.9035L52.9302 92.9836C52.7592 92.9836 52.5637 92.914 52.3472 92.7713L51.8864 92.4267C51.7747 92.6216 51.5757 92.8235 51.293 93.0393L51.08 93.175L52.6265 94.8561L52.1552 95.2598C51.841 94.9083 51.5443 94.5637 51.258 94.2226C50.9753 93.8815 50.7204 93.5648 50.5005 93.269C50.2806 92.9732 50.1095 92.7086 49.9838 92.472C49.8617 92.2353 49.7988 92.0508 49.7988 91.9151C49.7988 91.8037 49.8337 91.7063 49.9001 91.6193C49.9664 91.5322 50.0572 91.4835 50.1689 91.4696C50.2806 91.4696 50.4342 91.5322 50.6297 91.661L50.8985 91.8629V90.0078H49.2857L48.7271 89.1481H54.1032L54.5954 90.0078H51.9527V91.8733L52.2006 91.9638C52.2809 91.9847 52.3786 91.9951 52.4904 91.9951C52.7522 91.9951 53.028 91.9534 53.3177 91.8733C53.4608 91.8281 53.597 91.7828 53.7331 91.7376C53.8693 91.6923 54.0019 91.6401 54.1381 91.581V92.7191V92.7121ZM58.7427 90.0009V94.9118L57.6884 94.1739V93.2725C57.4929 93.443 57.266 93.5927 57.0042 93.718C56.69 93.8746 56.4002 93.9546 56.1314 93.9546C55.7055 93.9546 55.2552 93.7563 54.7804 93.363C54.3056 92.9697 54.0683 92.5346 54.0683 92.0578C54.0683 91.6784 54.2463 91.3443 54.6024 91.0589C54.9585 90.7735 55.3634 90.6273 55.8172 90.6273C56.0721 90.6273 56.2955 90.6587 56.491 90.7178C56.6865 90.777 56.8994 90.8953 57.1298 91.0763C57.3393 91.226 57.5243 91.4139 57.6884 91.6436V90.0009H53.5097L52.9512 89.1412H59.5281L60.0203 90.0009H58.7427ZM57.6884 92.2457V92.0996L57.3986 91.9221L57.0286 91.7446L56.5573 91.5879C56.4665 91.567 56.3269 91.5531 56.1314 91.5531C55.8242 91.5531 55.5589 91.6645 55.3355 91.8873C55.126 92.11 55.0213 92.3676 55.0213 92.6564C55.0213 92.8061 55.0876 92.9314 55.2238 93.0358C55.3564 93.1263 55.5205 93.1715 55.716 93.1715C55.8871 93.1715 56.2187 93.0497 56.7039 92.8026C56.8296 92.7365 56.9867 92.6495 57.1752 92.5451C57.3637 92.4406 57.5348 92.3397 57.6919 92.2457H57.6884ZM61.319 90.0009V94.8456L60.2647 94.1078V90.0009H59.5246L58.9661 89.1412H62.1463L62.6386 90.0009H61.3155H61.319ZM66.709 92.7121C66.6881 92.7191 66.6217 92.7434 66.5135 92.7782C66.4053 92.8165 66.2657 92.8548 66.0946 92.9035L65.5011 92.9836C65.3301 92.9836 65.1346 92.914 64.9182 92.7713L64.4573 92.4267C64.3456 92.6216 64.1467 92.8235 63.8639 93.0393L63.6509 93.175L65.1974 94.8561L64.7262 95.2598C64.412 94.9083 64.1152 94.5637 63.829 94.2226C63.5462 93.8815 63.2914 93.5648 63.0714 93.269C62.8515 92.9732 62.6804 92.7086 62.5548 92.472C62.4326 92.2353 62.3698 92.0508 62.3698 91.9151C62.3698 91.8037 62.4012 91.7063 62.471 91.6193C62.5373 91.5322 62.6281 91.4835 62.7398 91.4696C62.8515 91.4696 63.0051 91.5322 63.2006 91.661L63.4694 91.8629V90.0078H61.8566L61.298 89.1481H66.6776L67.1698 90.0078H64.5272V91.8733L64.775 91.9638C64.8588 91.9847 64.9531 91.9951 65.0648 91.9951C65.3266 91.9951 65.6024 91.9534 65.8921 91.8733C66.0353 91.8281 66.1714 91.7828 66.3076 91.7376C66.4402 91.6923 66.5764 91.6401 66.709 91.581V92.7191V92.7121ZM70.0359 90.0009L69.4773 89.1412H70.7201L71.2123 90.0009H70.0359ZM70.8318 93.4152C70.6747 93.5579 70.4199 93.718 70.0708 93.892C69.7217 94.0695 69.4599 94.1565 69.2853 94.1565C68.8594 94.1565 68.3533 93.9477 67.7633 93.537C67.2606 93.175 66.8766 92.8096 66.6078 92.4406L67.4945 92.023C67.7109 91.9325 67.8645 91.8525 67.9553 91.7794L67.1803 91.2573C66.8277 90.9893 66.6532 90.6552 66.6532 90.248C66.6532 89.8651 66.7893 89.5658 67.0616 89.35C67.3339 89.1342 67.7144 89.0298 68.1997 89.0298C68.5487 89.0298 68.9328 89.2456 69.3412 89.6772C69.5437 89.893 69.6973 90.1087 69.802 90.3176C69.9067 90.5299 69.9591 90.7491 69.9591 90.9719C69.9591 91.3721 69.7357 91.7654 69.2853 92.1448C69.0619 92.3223 68.6849 92.5625 68.1543 92.8583C68.1543 92.9383 68.1612 93.0114 68.1752 93.0776C68.1892 93.1437 68.2206 93.1924 68.2695 93.2342C68.3183 93.276 68.3707 93.3073 68.4301 93.3282C68.4894 93.349 68.5662 93.3595 68.6535 93.3595C68.9083 93.3595 69.2434 93.2237 69.6624 92.9557L70.8283 92.0195V93.4117L70.8318 93.4152ZM68.3567 91.4661C68.5522 91.3617 68.7093 91.212 68.828 91.0206C68.9467 90.8048 69.0061 90.589 69.0061 90.3733C69.0061 90.2236 68.9572 90.1018 68.8594 90.0043C68.7617 89.9069 68.636 89.8582 68.4789 89.8582C68.2695 89.8582 68.0879 89.9278 67.9343 90.0705C67.7807 90.2132 67.7039 90.3941 67.7039 90.6169C67.7039 90.8396 67.8156 91.038 68.0391 91.2294L68.3533 91.4626L68.3567 91.4661ZM69.7357 89.1447H75.9321L76.4243 90.0043H75.5062V94.9152L74.452 94.1774V93.1646L73.9807 93.3873C73.6071 93.5439 73.3069 93.624 73.0835 93.624C72.682 93.624 72.312 93.4813 71.9769 93.1959C71.7814 93.0323 71.551 92.7678 71.2822 92.4024L71.0587 91.9429C70.961 91.7028 70.8947 91.5044 70.8563 91.3478C70.8563 91.3025 71.1041 91.2016 71.5998 91.0415C72.0956 90.8779 72.3469 90.7178 72.3469 90.5542C72.3469 90.4429 72.291 90.2967 72.1793 90.1157L72.1025 90.0043H70.2872L69.7392 89.1447H69.7357ZM73.286 91.3826C73.286 91.487 73.0556 91.6193 72.5913 91.7794C72.127 91.9395 71.8966 92.1065 71.8966 92.2771C71.8966 92.4267 72.0013 92.5485 72.2108 92.6356C72.3679 92.6878 72.5145 92.7156 72.6471 92.7156C72.9299 92.7156 73.3209 92.5938 73.8131 92.3432L74.452 91.9743V90.0009H72.7379L73.0067 90.4707C73.1952 90.8605 73.286 91.1633 73.286 91.3791V91.3826ZM78.5189 90.0043L77.9604 89.1447H79.4266C79.4056 89.0994 79.3602 89.0089 79.2904 88.8767C79.252 88.8036 79.2136 88.7096 79.1682 88.5982C79.1368 88.4973 79.1159 88.3998 79.1019 88.3163C79.0879 88.2293 79.081 88.1284 79.081 88.01C79.081 87.6098 79.2241 87.2931 79.5138 87.0599C79.8001 86.8267 80.1806 86.7084 80.6519 86.7084C81.1232 86.7084 81.6643 86.9137 82.3415 87.3244C82.9315 87.6724 83.4132 88.0448 83.7868 88.4416L83.5738 88.8105C83.1863 88.4695 82.7674 88.1806 82.3241 87.9509C81.8807 87.7212 81.4688 87.6063 81.0848 87.6063C80.7008 87.6063 80.4389 87.7142 80.2434 87.9265C80.0479 88.1388 79.9537 88.4347 79.9537 88.8001V89.1447H80.987L81.556 90.0043H80.2888V94.9048L79.2346 94.1983V90.0009H78.5189V90.0043ZM80.1562 89.1447H86.1606L86.6528 90.0043H85.7103V94.9152L84.656 94.1774V92.8374H82.8617V93.3177C82.8617 93.45 82.8477 93.5439 82.8233 93.5892C82.7988 93.6379 82.7325 93.6623 82.6278 93.6623C82.5475 93.6623 82.4148 93.5996 82.2368 93.4743C82.0518 93.3247 81.8772 93.175 81.7201 93.0114C81.563 92.8548 81.4548 92.7295 81.3955 92.6425C81.3047 92.5068 81.2628 92.378 81.2628 92.2527C81.2628 92.0682 81.378 91.9777 81.6084 91.9777H81.8109V90.0009H80.7252L80.1527 89.1412L80.1562 89.1447ZM82.8687 91.9812H84.663V90.0043H82.8687V91.9812ZM89.0407 95.6183L88.0318 94.1113H87.8293C87.5395 94.1113 87.2882 94.0173 87.0857 93.8293C86.8832 93.6414 86.7785 93.4152 86.7785 93.1507C86.7785 92.994 86.8274 92.8444 86.9286 92.7052C87.0299 92.5625 87.1486 92.4929 87.2812 92.4929C87.4069 92.4929 87.5535 92.6007 87.7176 92.8165L87.9305 93.1507L88.5135 92.8131C88.7614 92.6564 88.915 92.5137 88.9848 92.3745L87.6059 91.6924C87.2184 91.3965 87.0229 91.0693 87.0229 90.7178C87.0229 90.5542 87.0822 90.3872 87.2009 90.2132L87.379 90.0009H86.2828L85.7242 89.1412H90.8769L91.3691 90.0009H89.8017C89.9588 90.1366 90.081 90.2584 90.1717 90.3698C90.4196 90.683 90.5418 90.9997 90.5418 91.3234C90.5418 91.9186 90.273 92.4928 89.7354 93.0462C89.498 93.2864 89.1 93.5857 88.538 93.9407L89.5643 95.3329L89.0407 95.6148V95.6183ZM89.4875 91.0519C89.4875 90.7248 89.4212 90.4498 89.285 90.2271L89.0825 90.0043H88.702C88.5764 90.0496 88.4542 90.1401 88.3425 90.2723C88.2517 90.3976 88.2098 90.5508 88.2098 90.7317C88.2098 90.9928 88.3425 91.2573 88.6148 91.5253C88.7998 91.7098 89.0092 91.8559 89.2431 91.9603L89.4212 91.5253C89.4666 91.3896 89.4875 91.2364 89.4875 91.0554V91.0519ZM92.2209 90.0009V94.8456L91.1667 94.1078V90.0009H90.4266L89.868 89.1412H93.0483L93.5405 90.0009H92.2174H92.2209ZM96.4904 92.4024H95.1463C95.066 92.4024 95.0242 92.4998 95.0242 92.6912V92.8374C95.0242 92.9801 95.0067 93.088 94.9683 93.1611C94.9299 93.2342 94.8391 93.2725 94.689 93.2725C94.5249 93.2725 94.2806 93.081 93.9559 92.6982C93.6313 92.3153 93.4672 92.0334 93.4672 91.8559C93.4672 91.7585 93.5091 91.6819 93.5894 91.6262C93.6732 91.5705 93.7674 91.5357 93.8791 91.5218H96.4904V90.0009H92.7376L92.179 89.1412H98.0054L98.4977 90.0009H97.5446V94.8456L96.4904 94.1078V92.4024Z" fill="#1B1918"/>
</g>
</g>
</g>
<g id="Mask group_2">
<mask id="mask2_381_12005" style="mask-type:luminance" maskUnits="userSpaceOnUse" x="0" y="0" width="121" height="86">
<g id="Group_4">
<path id="Vector_7" d="M121 0.013916H0V85.5006H121V0.013916Z" fill="white"/>
</g>
</mask>
<g mask="url(#mask2_381_12005)">
<g id="Group_5">
<path id="Vector_8" fill-rule="evenodd" clip-rule="evenodd" d="M15.8908 81.2057L6.3291 85.1908L5.78451 83.8961L11.192 75.7658L3.68645 78.8947L3.17677 77.6835L12.7385 73.6984L13.2831 74.9966L7.8756 83.1269L15.3812 79.998L15.8908 81.2092V81.2057ZM12.3091 72.5882L1.351 70.8166L1.0438 69.3444L10.3297 63.1144L10.6474 64.6388L7.81625 66.4487L8.70644 70.7087L12.0089 71.1681L12.3056 72.5882H12.3091ZM7.53348 70.5451L6.81085 67.096L4.21707 68.7353C3.42812 69.2295 2.77182 69.6159 2.25167 69.9013C2.94288 69.9013 3.63059 69.9535 4.3218 70.0544L7.53348 70.5451ZM10.4764 60.431L1.33005 60.6433L1.41035 64.0471L0.195494 64.075L0 55.8959L1.21485 55.8681L1.29514 59.272L10.4414 59.0597L10.4729 60.431H10.4764ZM10.6788 54.02L0.394478 52.7183L0.569026 51.3574L10.8499 52.6591L10.6753 54.02H10.6788ZM6.02539 49.2309C4.37417 48.7575 3.20819 47.9396 2.53094 46.7876C1.8537 45.6321 1.71755 44.3583 2.1225 42.9591C2.38781 42.0403 2.84513 41.2781 3.49794 40.669C4.14726 40.0599 4.92225 39.6736 5.81942 39.5135C6.71311 39.3534 7.66265 39.416 8.65408 39.7014C9.66296 39.9903 10.5078 40.4532 11.185 41.0901C11.8658 41.7271 12.3021 42.4753 12.4941 43.335C12.6896 44.1982 12.6617 45.0613 12.4103 45.9245C12.1381 46.8607 11.6703 47.6299 11.007 48.2355C10.3437 48.8411 9.56522 49.2239 8.67153 49.3771C7.78134 49.5302 6.89813 49.4815 6.02539 49.2309ZM6.44081 47.877C7.63821 48.2216 8.67502 48.1728 9.55125 47.7273C10.424 47.2818 11.0035 46.5753 11.2863 45.6043C11.5725 44.6158 11.4573 43.7039 10.9476 42.8652C10.4345 42.0264 9.54078 41.4243 8.2596 41.0553C7.4497 40.8221 6.70263 40.756 6.0219 40.8535C5.34116 40.9544 4.75468 41.2189 4.27293 41.647C3.78769 42.0786 3.45256 42.6215 3.26055 43.2758C2.99175 44.2051 3.07902 45.0961 3.52587 45.9523C3.97271 46.805 4.9397 47.4489 6.43732 47.877H6.44081ZM14.4456 39.5518L5.26436 34.7592L5.91717 33.5167L15.6465 32.476L8.43764 28.7137L9.04856 27.5512L18.2333 32.3438L17.5805 33.5898L7.85116 34.6304L15.06 38.3928L14.4491 39.5553L14.4456 39.5518ZM18.8407 31.2788L13.8137 21.4117L14.8261 20.298L25.3478 24.1021L24.3005 25.2576L21.1657 24.0464L18.2402 27.2762L19.8182 30.2068L18.8442 31.2857L18.8407 31.2788ZM17.6817 26.2286L20.0486 23.6148L17.193 22.4941C16.3272 22.153 15.6255 21.8502 15.0879 21.5962C15.4929 22.153 15.8594 22.7377 16.1841 23.3538L17.6817 26.2286ZM26.1752 23.4686L19.5005 15.5645L20.5547 14.6805L26.4475 21.6588L30.3469 18.3872L31.1288 19.313L26.1787 23.4686H26.1752ZM39.1895 14.8406L35.4507 5.20327L36.7318 4.70904L38.2748 8.68023L43.2704 6.75554L41.7274 2.78436L43.0121 2.29013L46.7509 11.9275L45.4662 12.4217L43.7068 7.88669L38.7112 9.81485L40.4706 14.3499L39.1895 14.8441V14.8406ZM49.0689 11.5446L47.2606 1.3713L54.6265 0.0661284L54.8394 1.25992L48.8245 2.32494L49.3796 5.45038L55.0105 4.45497L55.2234 5.64876L49.5925 6.64417L50.2104 10.1107L56.4662 9.00391L56.6792 10.1977L49.0654 11.5446H49.0689ZM57.4751 10.2151L61.741 0L63.2491 0.0417653L67.173 10.4901L65.6125 10.4483L64.5024 7.28457L60.1387 7.16276L58.9273 10.2604L57.4716 10.2186L57.4751 10.2151ZM60.5751 6.05945L64.1079 6.16039L63.1095 3.26466C62.8093 2.3841 62.5824 1.66017 62.4288 1.0859C62.2682 1.75414 62.0587 2.41195 61.8004 3.05931L60.5786 6.05945H60.5751ZM68.1819 10.8659L69.9413 0.682167L71.2958 0.915357L69.7423 9.90535L74.7623 10.7685L74.5563 11.9623L68.1784 10.8659H68.1819ZM77.5586 13.17L80.7947 4.63943L77.597 3.4352L78.0263 2.30057L85.703 5.19282L85.2736 6.32745L82.0759 5.12321L78.8432 13.6538L77.5551 13.17H77.5586ZM83.4443 15.3975L88.9461 6.64069L90.112 7.3681L87.8464 10.9773L92.3847 13.8104L94.6503 10.2012L95.8163 10.9286L90.3145 19.6854L89.1485 18.958L91.7388 14.8371L87.1971 12.0041L84.6068 16.1249L83.4408 15.3975H83.4443ZM98.1901 26.3818L106.554 20.2771L107.769 21.9303L103.297 28.2229C102.878 28.8076 102.564 29.2392 102.351 29.5246C102.725 29.3993 103.283 29.2218 104.02 28.9921L111.309 26.7542L112.395 28.2299L104.03 34.3346L103.252 33.2731L110.248 28.1638L101.465 30.8367L100.735 29.8413L106.094 22.2331L98.9686 27.4329L98.1901 26.3713V26.3818ZM105.06 36.5586L114.231 31.7417L114.873 32.9529L105.703 37.7698L105.06 36.5551V36.5586ZM109.811 38.3893L110.349 39.5622C109.878 39.7919 109.522 40.0669 109.281 40.3906C109.04 40.7108 108.904 41.1284 108.862 41.64C108.824 42.1517 108.904 42.6842 109.099 43.2376C109.274 43.7318 109.501 44.139 109.78 44.4627C110.059 44.7864 110.363 44.9952 110.684 45.0892C111.005 45.1831 111.32 45.1762 111.62 45.0718C111.924 44.9639 112.161 44.7829 112.325 44.5253C112.489 44.2678 112.58 43.9093 112.59 43.4429C112.597 43.1471 112.552 42.5136 112.451 41.5391C112.349 40.5681 112.332 39.872 112.395 39.4439C112.475 38.894 112.66 38.4415 112.943 38.0865C113.222 37.7315 113.589 37.4739 114.039 37.3139C114.535 37.1398 115.048 37.1189 115.572 37.2477C116.102 37.3765 116.57 37.6654 116.982 38.1248C117.394 38.5807 117.719 39.1376 117.949 39.7954C118.204 40.5159 118.312 41.1945 118.274 41.828C118.239 42.4614 118.043 43.0044 117.694 43.4638C117.345 43.9197 116.888 44.2608 116.322 44.4836L115.788 43.2793C116.381 42.9974 116.769 42.6076 116.947 42.1134C117.129 41.6192 117.083 40.9962 116.818 40.2479C116.542 39.4682 116.196 38.9497 115.785 38.6921C115.373 38.438 114.964 38.3789 114.559 38.5216C114.21 38.6434 113.966 38.8731 113.826 39.2072C113.69 39.5344 113.683 40.2653 113.819 41.3964C113.952 42.5276 113.997 43.3211 113.959 43.7736C113.896 44.4314 113.714 44.9674 113.407 45.378C113.103 45.7887 112.688 46.0846 112.164 46.269C111.644 46.4535 111.103 46.4779 110.538 46.3386C109.972 46.2029 109.466 45.9036 109.016 45.4372C108.565 44.9708 108.216 44.3931 107.968 43.697C107.658 42.8164 107.525 42.0333 107.574 41.3477C107.619 40.662 107.843 40.0599 108.241 39.5379C108.639 39.0158 109.159 38.6329 109.805 38.3858L109.811 38.3893ZM113.013 48.232L113.288 49.4919C112.779 49.6172 112.374 49.8121 112.07 50.0766C111.77 50.3412 111.543 50.717 111.396 51.2078C111.253 51.6985 111.215 52.238 111.292 52.8192C111.358 53.3378 111.494 53.7833 111.697 54.1592C111.903 54.5351 112.154 54.8031 112.447 54.9632C112.744 55.1233 113.048 55.1825 113.365 55.1442C113.686 55.1024 113.955 54.9736 114.172 54.7578C114.388 54.5421 114.549 54.2079 114.66 53.759C114.73 53.4701 114.821 52.8401 114.929 51.8691C115.037 50.898 115.167 50.2124 115.32 49.8086C115.516 49.2866 115.792 48.8829 116.141 48.5975C116.49 48.3086 116.905 48.1346 117.376 48.0754C117.897 48.0093 118.403 48.0963 118.891 48.3329C119.38 48.5696 119.778 48.9525 120.085 49.4884C120.393 50.021 120.588 50.6335 120.675 51.3226C120.773 52.0814 120.735 52.767 120.564 53.3796C120.393 53.9887 120.089 54.4829 119.649 54.8553C119.213 55.2277 118.692 55.4644 118.092 55.5653L117.823 54.2741C118.462 54.1244 118.923 53.8251 119.202 53.3796C119.481 52.9341 119.572 52.318 119.471 51.528C119.366 50.7066 119.139 50.1288 118.79 49.7912C118.441 49.4536 118.054 49.3109 117.628 49.3666C117.261 49.4119 116.971 49.5859 116.765 49.8817C116.563 50.1741 116.402 50.8841 116.294 52.0187C116.182 53.1534 116.06 53.9365 115.928 54.3715C115.729 55.0015 115.435 55.4853 115.051 55.8229C114.667 56.1605 114.2 56.3623 113.648 56.4319C113.1 56.5015 112.569 56.411 112.046 56.1605C111.522 55.9099 111.089 55.5096 110.747 54.9597C110.405 54.4098 110.189 53.7694 110.094 53.0385C109.976 52.1127 110.014 51.3192 110.206 50.6614C110.398 50.0001 110.74 49.4606 111.243 49.0325C111.742 48.6044 112.332 48.3399 113.016 48.2355L113.013 48.232ZM110.635 58.9065L121 59.0075L120.986 60.3788L110.621 60.2778L110.635 58.9065ZM115.757 63.2362C117.446 63.5529 118.682 64.256 119.467 65.3384C120.253 66.4243 120.508 67.6807 120.239 69.1112C120.061 70.0509 119.677 70.8514 119.087 71.5231C118.497 72.1914 117.764 72.6473 116.884 72.891C116.008 73.1346 115.058 73.1624 114.043 72.9745C113.009 72.7796 112.126 72.4002 111.389 71.8329C110.653 71.2656 110.147 70.5591 109.871 69.7203C109.595 68.878 109.543 68.0149 109.707 67.1343C109.888 66.1772 110.279 65.3662 110.887 64.698C111.491 64.0332 112.231 63.5808 113.103 63.3406C113.976 63.1039 114.859 63.0691 115.753 63.2362H115.757ZM115.47 64.6214C114.245 64.3917 113.219 64.5379 112.388 65.0634C111.56 65.589 111.051 66.3477 110.866 67.3396C110.674 68.3525 110.873 69.2469 111.463 70.037C112.053 70.8236 112.999 71.3387 114.308 71.5823C115.135 71.7389 115.886 71.732 116.553 71.5684C117.223 71.4048 117.778 71.0846 118.218 70.6113C118.658 70.1344 118.944 69.5637 119.07 68.8954C119.248 67.9452 119.076 67.0647 118.549 66.2572C118.022 65.4498 116.999 64.9033 115.47 64.6179V64.6214ZM108.422 73.7193L117.907 77.8889L117.338 79.1732L107.699 80.8612L115.142 84.1328L114.612 85.3335L105.127 81.164L105.696 79.8797L115.334 78.1917L107.891 74.9201L108.422 73.7193Z" fill="#1B1918"/>
</g>
</g>
</g>
</g>
</g>
</g>
</g>
<defs>
<clipPath id="clip0_381_12005">
<rect width="121" height="97" fill="white"/>
</clipPath>
</defs>
</svg>
